<?xml version="1.0" encoding="utf-8"?>
<!-- Generator: Adobe Illustrator 24.2.3, SVG Export Plug-In . SVG Version: 6.00 Build 0)  -->
<svg version="1.1" id="Layer_1" xmlns="http://www.w3.org/2000/svg" xmlns:xlink="http://www.w3.org/1999/xlink" x="0px" y="0px"
	 viewBox="0 0 306 29" style="enable-background:new 0 0 306 29;" xml:space="preserve">
<style type="text/css">
	.st0{fill:#008F9F;}
</style>
<path class="st0" d="M23.5,24.3c0.8,0.3,1.6,0.6,2.5,0.8c-3.1-0.2-6-0.5-8.4-0.8s-4.8-0.8-6.9-1.4c-2-0.5-3.9-1.2-5.7-1.9
	c-1.7-0.7-3.4-1.5-4.9-2.3c1.6,0.5,3.1,1,4.6,1.4s3,0.8,4.5,1.1c1.6,0.3,3.1,0.6,4.7,0.8c1.7,0.2,3.4,0.4,5.4,0.4
	c0.7,0.3,1.3,0.7,2.1,1C22,23.7,22.7,24,23.5,24.3z M47.9,13.7l3.1,1.4c0.3-0.2,0.7-0.5,1.1-0.9c0.3-0.4,0.8-0.7,1.1-1.1
	c0.4-0.4,0.8-0.9,1.1-1.3l-7-2.9c-0.8,1.2-1.6,2.2-2.6,3.2c-1,0.9-2,1.8-3.1,2.6c-1.1,0.8-2.2,1.5-3.5,2.2s-2.5,1.4-3.7,2
	c2.2-0.3,4.4-0.8,6.5-1.7C43.2,16.3,45.4,15.1,47.9,13.7z M93.8,11.5v-3c0-0.8-0.3-1.5-0.9-2.1s-1.5-0.9-2.8-0.9
	c-1.1,0-2,0.3-2.7,0.8c-0.7,0.6-1,1.3-1,2.1v12.9c0,0.9,0.3,1.6,0.9,2.2c0.7,0.6,1.6,0.9,2.8,0.9s2.1-0.3,2.7-0.9s0.9-1.3,0.9-2.2
	v-3.1h-3.1v3.3c0,0.2,0,0.4-0.1,0.6c0,0.2-0.2,0.2-0.4,0.2c-0.2,0-0.4-0.1-0.4-0.2c-0.1-0.2-0.1-0.3-0.1-0.6V8.1
	c0-0.4,0.2-0.6,0.6-0.6c0.3,0,0.6,0.2,0.6,0.6v3.4H93.8z M98.3,5.5c1.1,0,2,0.3,2.7,0.8s1,1.3,1,2.2v12.9c0,0.9-0.3,1.7-1,2.2
	c-0.7,0.6-1.6,0.9-2.7,0.9c-1.2,0-2.1-0.3-2.8-0.8c-0.7-0.6-1-1.3-1-2.3V8.5c0-0.9,0.3-1.6,1-2.2C96.3,5.8,97.2,5.5,98.3,5.5z
	 M98.3,7.5c-0.2,0-0.3,0.1-0.4,0.2S97.8,8,97.8,8.2v13.7c0,0.4,0.2,0.6,0.6,0.6c0.3,0,0.4-0.2,0.4-0.6V8.1
	C98.9,7.7,98.7,7.5,98.3,7.5z M110.5,11.5v-3c0-0.8-0.3-1.5-0.9-2.1s-1.5-0.9-2.8-0.9c-1.1,0-2,0.3-2.7,0.8c-0.7,0.6-1,1.3-1,2.1
	v12.9c0,0.9,0.3,1.6,0.9,2.2c0.7,0.6,1.6,0.9,2.8,0.9s2.1-0.3,2.7-0.9s0.9-1.3,0.9-2.2v-3.1h-3.1v3.3c0,0.2,0,0.4-0.1,0.6
	c0,0.2-0.2,0.2-0.4,0.2c-0.2,0-0.4-0.1-0.4-0.2c-0.1-0.2-0.1-0.3-0.1-0.6V8.1c0-0.4,0.2-0.6,0.6-0.6c0.3,0,0.6,0.2,0.6,0.6v3.4
	H110.5z M125.7,24.4V7.8h1.9V5.6h-7h-0.4h-3.1l-2.8,7.9V5.6h-3.1v18.7h3.1v-5.6l0.9-2.2l1.8,7.8h3.6l-3.1-10.6l2.9-7v1.2h2.2v16.6
	h3.1V24.4z M131.9,24.4v-5.6h-1.1v5.6h-3.1V8.5c0-0.9,0.3-1.6,1-2.2c0.7-0.5,1.6-0.8,2.7-0.8c1.1,0,2,0.3,2.7,0.8
	c0.7,0.5,1,1.3,1,2.2v15.9H131.9z M131.9,16.8V8.1c0-0.4-0.2-0.6-0.6-0.6c-0.2,0-0.4,0.1-0.4,0.2c-0.1,0.1-0.1,0.3-0.1,0.4v8.6
	L131.9,16.8L131.9,16.8z M139.2,24.4V5.6h-3.1v18.7L139.2,24.4L139.2,24.4z M140.2,5.6v18.7h6.6v-2h-3.5V5.6H140.2z M139.5,2.5h-3.4
	h-1.3H128h-1.6h-5.3h-0.9h-9.1h-0.9h-7.1H102h-7.5h-1.3h-5.7h-2h-9c0,0.2-0.2,0.5-0.6,1c-0.3,0.5-0.7,1-1.1,1.6s-0.9,1.2-1.3,1.7
	c-0.4,0.6-0.8,1-1.1,1.4c-1.8-0.4-3.5-1-5.3-1.8c-1.8-0.8-3.6-1.7-5.3-2.8c-1.6,2.1-3.1,4.1-4.5,5.8c-1.5,1.7-2.8,3.3-4.4,4.6
	c-1.5,1.4-3,2.5-4.6,3.5c-1.6,1-3.4,1.8-5.4,2.4c-1.9,0.7-4.2,1.1-6.5,1.5s-5.2,0.5-8.2,0.5c1,0.4,2,0.7,3,0.9c1,0.2,2,0.4,2.9,0.5
	c0.9,0.1,1.6,0.2,2.1,0.3l0.9,0.1c3-0.2,5.8-0.6,8.2-1.2c2.5-0.6,4.7-1.5,6.9-2.7c2.1-1.2,4.2-2.6,6.1-4.3s3.9-3.7,6-6l5.5,2.3
	c-0.6,0.6-1,1.2-1.6,1.8c-0.4,0.5-0.9,1-1.3,1.4c-0.4,0.5-0.9,0.9-1.3,1.3l-4.7-1.8c-0.2,0.3-0.6,0.6-1,0.9
	c-0.3,0.3-0.8,0.6-1.1,0.9c-0.3,0.3-0.7,0.5-0.9,0.7c-0.2,0.2-0.4,0.3-0.6,0.3l4.3,1.7c-1.6,1-3,1.9-4.5,2.6s-2.9,1.3-4.5,1.8
	c-1.5,0.5-3,0.9-4.7,1.1c-1.6,0.2-3.4,0.4-5.2,0.4c-2.7,0-5.6-0.3-8.5-0.8s-5.8-1.2-8.7-2.1s-5.5-2-8-3.2s-4.7-2.5-6.5-3.9
	c1.7,2,3.7,3.7,6.1,5.3s4.9,2.9,7.6,3.9c2.8,1.1,5.7,1.9,8.8,2.5s6.2,0.9,9.3,0.9h42.6h2h5.7h1.3h7.5h1.1h7.1h0.9h9.1h0.9h5.3h1.5
	h6.7h1.3h3.4h1.3h6.9v-1.6h-6.9h-1.3h-3.4h-1.3h-6.7h-1.2h-5.3h-0.9h-9.1h-0.9h-7.1H102h-7.5h-1.3h-5.7h-2H53.9
	c2.2-0.7,4.5-1.6,6.7-2.7s4.5-2.6,6.7-4.3c2.2-1.8,4.6-3.8,6.9-6.3c2.2-2.4,4.5-5.3,6.7-8.5h4.4h2h5.7h1.3h7.5h1.1h7.1h0.9h9.1h0.9
	h5.3h1.5h6.7h1.3h3.4h1.3h6.9V2.5h-6.9H139.5z M160.7,13.8c0.3,0,0.8,0.1,1.3,0.3c0.6,0.2,1.3,0.5,2.2,1.1c0.9,0.6,2.1,1.3,3.6,2.3
	s3.3,2.3,5.5,4c0.2-0.2,0.4-0.4,0.7-0.6c0.2-0.2,0.4-0.4,0.7-0.7c-2.2-1.7-4.2-3-5.6-4s-2.8-1.8-3.8-2.4c-1-0.6-1.9-1-2.6-1.2
	c-0.7-0.2-1.3-0.3-2-0.3c-0.6,0-1.1,0.1-1.6,0.2c-0.4,0.2-0.9,0.4-1.2,0.6c-0.3,0.3-0.6,0.6-0.8,0.9c-0.2,0.3-0.3,0.7-0.3,1.1
	c0,0.3,0.1,0.6,0.3,1c0.2,0.4,0.4,0.6,0.8,0.9s0.8,0.5,1.2,0.7c0.4,0.2,1,0.3,1.6,0.3c0.7,0,1.2-0.1,2-0.3c0.7-0.2,1.6-0.6,2.6-1.1
	l-1.8-1c-0.7,0.3-1.2,0.6-1.7,0.6c-0.4,0.1-0.8,0.1-1,0.1c-0.6,0-0.9-0.1-1.2-0.4c-0.3-0.3-0.6-0.6-0.6-0.9c0-0.3,0.1-0.6,0.4-0.9
	C159.6,13.9,160,13.8,160.7,13.8z M173.5,7.4c0.3-0.2,0.6-0.5,0.8-0.7s0.4-0.4,0.7-0.7c-0.4-0.5-0.8-0.9-0.9-1.2s-0.2-0.6-0.2-0.8
	c0-0.4,0.1-0.7,0.4-0.9c0.3-0.3,0.7-0.4,1.2-0.4c0.4,0,0.9,0.1,1.2,0.3s0.4,0.6,0.4,1c0,0.2,0,0.4-0.1,0.7s-0.3,0.7-0.7,1.1
	c-0.3,0.5-0.9,1-1.6,1.7s-1.6,1.4-2.8,2.3l1.5,1.2c1.1-0.8,2-1.6,2.8-2.3c0.8-0.7,1.3-1.3,1.8-1.9c0.4-0.6,0.8-1.1,0.9-1.5
	c0.2-0.5,0.3-0.9,0.3-1.2c0-0.4-0.1-0.8-0.3-1.2c-0.2-0.4-0.4-0.7-0.9-0.9c-0.3-0.3-0.8-0.5-1.2-0.6c-0.4-0.1-0.9-0.2-1.5-0.2
	c-0.4,0-0.9,0.1-1.3,0.2s-0.9,0.3-1.2,0.6s-0.7,0.6-0.9,0.9c-0.2,0.4-0.3,0.8-0.3,1.2s0.1,0.9,0.4,1.5
	C172.4,6.2,172.8,6.7,173.5,7.4z M169.6,13.9l0.9-0.6l-1.5-1.2l-2,1.5l1.7,1c0,0,0.1-0.1,0.3-0.2C169.1,14.2,169.4,14,169.6,13.9z
	 M161.1,4.5l12.1,10l1.5-1.2L162.4,3.1c-0.2-0.2-0.4-0.3-0.7-0.4c-0.2-0.1-0.6-0.1-0.9-0.1h-11.9v1.6h11.2
	C160.6,4.1,160.9,4.2,161.1,4.5z M190.4,16.4c-0.2,0-0.6,0-0.9-0.1c-0.3-0.1-0.8-0.2-1.3-0.5c-0.6-0.2-1.2-0.6-1.9-1
	c-0.8-0.4-1.7-1-2.7-1.7c-1.3-1-2.5-1.8-3.1-2.4c-0.7-0.6-1.3-1-1.7-1.3S178,8.9,178,8.8c-0.1-0.1-0.1-0.2-0.2-0.2l-1.5,1.3
	c2.1,1.7,4,3.1,5.6,4.1s2.9,1.8,3.9,2.4c1.1,0.6,2,0.9,2.7,1.1c0.7,0.2,1.3,0.3,1.8,0.3c0.6,0,1.1-0.1,1.6-0.2
	c0.4-0.1,0.9-0.4,1.2-0.6c0.3-0.3,0.7-0.6,0.8-0.9c0.2-0.3,0.3-0.7,0.3-1.1c0-0.3-0.1-0.6-0.3-1c-0.2-0.3-0.4-0.6-0.8-0.9
	c-0.3-0.3-0.8-0.5-1.2-0.7c-0.4-0.2-1-0.3-1.6-0.3c-1.1,0-2.7,0.4-4.5,1.3c0.3,0.2,0.7,0.4,1,0.6c0.3,0.2,0.6,0.3,0.8,0.5
	c0.7-0.3,1.2-0.5,1.7-0.6c0.4-0.1,0.8-0.2,1-0.2c0.6,0,0.9,0.1,1.3,0.4c0.3,0.3,0.6,0.6,0.6,0.9c0,0.3-0.1,0.6-0.4,0.9
	C191.4,16.3,190.9,16.4,190.4,16.4z M189.9,25.6l-12.2-10l-1.5,1.2L188.6,27c0.4,0.4,0.9,0.5,1.6,0.5h11.7v-1.6h-11
	C190.5,25.9,190.1,25.8,189.9,25.6z M161.1,25.6c-0.2,0.2-0.6,0.3-1,0.3h-11.2v1.6h11.8c0.7,0,1.1-0.2,1.6-0.5l8.2-6.7l-1.6-1.1
	L161.1,25.6z M177.6,22.7c-0.3,0.3-0.6,0.5-0.8,0.7s-0.4,0.4-0.7,0.6c0.4,0.5,0.8,0.9,0.9,1.2s0.2,0.6,0.2,0.8
	c0,0.4-0.1,0.7-0.4,0.9c-0.3,0.3-0.7,0.4-1.2,0.4c-0.4,0-0.9-0.1-1.2-0.3c-0.3-0.2-0.6-0.6-0.6-1c0-0.2,0-0.4,0.1-0.7
	c0.1-0.3,0.3-0.7,0.7-1.1c0.3-0.5,0.9-1,1.6-1.7c0.7-0.7,1.7-1.4,2.8-2.3l-1.5-1.2c-1.1,0.9-2.1,1.7-2.8,2.4
	c-0.7,0.7-1.3,1.3-1.8,1.9c-0.4,0.6-0.8,1.1-1,1.5c-0.2,0.5-0.3,0.9-0.3,1.2c0,0.4,0.1,0.8,0.3,1.2c0.2,0.4,0.4,0.7,0.9,0.9
	c0.3,0.3,0.8,0.5,1.2,0.6c0.4,0.1,0.9,0.2,1.5,0.2c0.4,0,1-0.1,1.5-0.2c0.4-0.1,0.9-0.3,1.2-0.6c0.3-0.3,0.7-0.6,0.9-0.9
	c0.2-0.3,0.3-0.8,0.3-1.2s-0.1-0.9-0.4-1.5C178.7,24.1,178.2,23.4,177.6,22.7z M188.6,3.1l-8.2,6.7l1.6,1.1l7.9-6.5
	c0.2-0.2,0.6-0.3,1-0.3h11V2.5h-11.7C189.6,2.5,189,2.7,188.6,3.1z M177.6,12.1l-5.6,4.7l1.5,1.1l5.7-4.7L177.6,12.1z M181.5,16.2
	c-0.2,0.2-0.6,0.4-0.9,0.7l1.5,1.2c0.4-0.3,0.7-0.5,0.9-0.7s0.6-0.4,1.1-0.8c-0.3-0.2-0.6-0.3-0.9-0.5c-0.2-0.2-0.6-0.3-0.9-0.5
	C182,15.8,181.7,16,181.5,16.2z M211.2,23.4c-0.6,0.6-1.6,0.9-2.9,0.9h-3.7V5.6h3.7c1.3,0,2.2,0.3,2.8,0.8c0.6,0.5,0.9,1.3,0.9,2.2
	v12.6C211.9,22.1,211.7,22.8,211.2,23.4z M208.8,8.3c0-0.5-0.2-0.8-0.7-0.8h-0.4v14.7h0.4c0.3,0,0.4-0.1,0.6-0.2s0.1-0.3,0.1-0.5
	V8.3z M219,14.2c0.3,0.1,0.7,0.3,0.9,0.6s0.3,0.6,0.3,1v5.5c0,0.4-0.1,0.8-0.2,1.2c-0.1,0.4-0.3,0.7-0.6,1c-0.3,0.3-0.7,0.5-1.1,0.7
	c-0.4,0.2-1,0.3-1.7,0.3H213V5.6h3.7c1.1,0,2,0.3,2.7,0.8c0.7,0.5,0.9,1.2,0.9,2.1v3.9c0,0.4-0.1,0.8-0.3,1.1S219.4,14,219,14.2z
	 M217.2,15.6c0-0.1,0-0.3-0.1-0.4c0-0.1-0.1-0.2-0.3-0.2h-0.7v7.2h0.7c0.2,0,0.3-0.2,0.3-0.6v-6H217.2z M217.2,8.3
	c0-0.4-0.1-0.7-0.4-0.7h-0.6v5.5h0.7c0.2,0,0.3-0.2,0.3-0.6L217.2,8.3L217.2,8.3z M258.2,16.4l-3.1-1.4c-0.3,0.2-0.7,0.5-1.1,0.9
	c-0.3,0.4-0.8,0.8-1.1,1.1c-0.3,0.4-0.8,0.8-1.1,1.3l7,2.9c0.8-1.2,1.6-2.2,2.6-3.2c1-0.9,2-1.8,3.1-2.6c1.1-0.8,2.2-1.5,3.5-2.2
	s2.5-1.4,3.7-2c-2.2,0.3-4.4,0.8-6.5,1.7C263,13.8,260.7,15,258.2,16.4z M288.9,9.8c-2.4-1.6-4.9-2.9-7.6-3.9
	c-2.7-1-5.7-1.9-8.8-2.5s-6.2-0.9-9.3-0.9h-41.8h-2.7h-5.2h-1.1h-8.9v1.6h8.9h1.1h5.2h2.7h30.7c-2.2,0.7-4.5,1.6-6.7,2.7
	c-2.2,1.1-4.5,2.6-6.7,4.3c-2.2,1.8-4.6,3.8-6.9,6.3c-2.2,2.4-4.5,5.3-6.7,8.5h-3.6h-2.7h-5.2h-1.1h-8.9v1.6h8.9h1.1h5.2h2.7h8.2
	l4.2-5.8c1.8,0.4,3.5,1,5.3,1.8c1.8,0.8,3.6,1.7,5.3,2.8c1.6-2.1,3-4.1,4.5-5.8c1.5-1.7,2.9-3.3,4.4-4.6c1.5-1.4,3-2.5,4.6-3.5
	s3.4-1.8,5.4-2.4c1.9-0.7,4.2-1.1,6.5-1.4c2.4-0.3,5.2-0.5,8.2-0.5c-1-0.4-2-0.7-3-0.9c-1-0.2-2-0.4-2.9-0.5s-1.9-0.2-3-0.3
	c-3,0.2-5.8,0.6-8.2,1.2c-2.5,0.6-4.7,1.5-6.9,2.7c-2.1,1.2-4.2,2.6-6.1,4.3s-3.9,3.7-6,6l-5.5-2.3c0.6-0.6,1-1.2,1.6-1.8
	c0.6-0.5,1-1,1.3-1.4c0.4-0.5,0.9-0.9,1.3-1.3l4.7,1.8c0.2-0.3,0.9-0.8,1.9-1.6c1-0.8,1.5-1.2,1.6-1.2l-4.4-1.8c1.6-1,3-1.8,4.5-2.6
	c1.5-0.7,2.9-1.4,4.5-1.9c1.5-0.5,3-0.9,4.7-1.1s3.4-0.4,5.2-0.4c2.7,0,5.6,0.3,8.5,0.8c2.9,0.5,5.8,1.2,8.7,2.1
	c2.8,0.9,5.5,2,8,3.2s4.7,2.5,6.5,3.9C293.3,13.1,291.3,11.4,288.9,9.8z M301.1,9.1c-1.7-0.7-3.6-1.3-5.7-1.9s-4.4-1-6.9-1.4
	S283.2,5.2,280,5c0.8,0.2,1.7,0.5,2.5,0.8c0.8,0.3,1.6,0.6,2.2,0.9s1.3,0.6,2,1c1.9,0.1,3.7,0.2,5.4,0.4c1.7,0.2,3.3,0.5,4.7,0.8
	c1.6,0.3,3,0.7,4.5,1.1c1.5,0.4,3,0.9,4.6,1.4C304.4,10.6,302.9,9.8,301.1,9.1z"/>
</svg>
